<svg width="411" height="260" viewBox="0 0 411 260" fill="none" xmlns="http://www.w3.org/2000/svg">
<g filter="url(#filter0_d_1_101)">
<path d="M406.835 166.794C405.835 152.884 399.355 136.214 361.315 147.014C341.665 152.594 323.645 152.824 315.855 145.164C314.875 143.914 314.035 142.724 313.245 141.574C310.315 135.604 311.595 126.614 318.995 114.034C324.315 104.964 330.245 102.944 337.515 102.914C343.595 102.884 350.585 104.224 358.985 104.024C385.375 103.394 395.495 86.8345 394.355 71.6845C393.995 67.0545 388.025 68.5245 376.525 65.7545C365.005 62.9845 355.845 64.3845 353.575 48.2245C352.915 43.4745 346.895 33.3945 332.815 31.2145C323.545 29.7845 303.775 20.3345 289.035 32.1945L276.235 26.6345C267.635 24.4845 268.325 30.3545 260.115 33.2545C252.805 35.8445 238.665 29.0145 242.475 38.5045C245.595 46.2745 258.175 56.4445 273.535 51.5245C264.425 97.3945 220.365 107.764 183.655 106.334C134.815 104.434 96.7447 63.2945 98.6447 14.4445C99.1847 0.294467 94.5747 -3.74553 90.1347 3.59447C88.7947 5.82447 87.4547 9.10447 86.2947 13.4645C85.8747 14.8745 85.4847 16.4445 85.1647 18.1345C81.2947 38.5645 86.1547 78.9845 120.015 105.644C120.015 105.644 108.705 114.804 104.845 132.054C102.635 141.934 103.505 149.764 104.305 153.814C104.695 155.744 105.055 156.814 105.055 156.814C108.225 171.934 79.9747 182.044 67.7747 184.134C66.8447 184.284 65.9347 184.394 65.0447 184.454C63.3147 184.574 61.6847 184.524 60.1147 184.424C57.9247 184.344 56.1247 184.174 54.6847 183.924C47.2947 183.324 41.9147 184.464 37.1447 202.854C30.4747 228.634 10.9747 222.824 6.35471 230.134C-0.985294 241.764 9.94471 250.554 23.8347 251.314C32.1747 251.764 41.5947 249.314 48.7747 242.844C72.8047 221.164 61.2747 211.574 85.1447 213.164C88.1947 213.364 91.8147 213.734 96.1747 214.304C122.595 217.744 141.375 223.224 167.435 195.174C167.435 195.174 169.645 191.874 172.825 189.264C174.185 188.144 175.725 187.144 177.345 186.594C178.025 186.094 181.425 186.254 181.935 186.424C181.975 186.434 182.015 186.454 182.055 186.464C192.195 188.774 214.825 201.224 240.375 197.044C250.555 193.344 259.685 187.574 267.285 180.234C267.285 180.234 271.385 176.634 274.005 179.914C277.455 183.694 280.915 190.224 284.715 194.334C293.845 204.204 294.035 200.154 313.335 192.284C315.245 191.494 317.345 190.684 319.675 189.834C370.045 171.444 369.015 165.534 379.045 185.594C380.885 189.264 387.315 189.674 393.525 187.114C400.715 184.154 407.605 177.234 406.845 166.764" fill="#F134BC"/>
<g style="mix-blend-mode:multiply" opacity="0.1">
<mask id="mask0_1_101" style="mask-type:luminance" maskUnits="userSpaceOnUse" x="172" y="153" width="102" height="45">
<path d="M273.995 153.834H172.815V197.934H273.995V153.834Z" fill="white"/>
</mask>
<g mask="url(#mask0_1_101)">
<path d="M249.625 175.934C236.795 202.554 189.995 185.624 188.885 179.854C189.075 175.844 192.195 167.004 189.185 170.024C186.265 172.954 176.475 184.844 172.825 189.304C174.195 188.184 175.725 187.184 177.355 186.634C178.035 186.134 181.435 186.294 181.945 186.464C181.985 186.474 182.025 186.494 182.065 186.504C192.205 188.824 214.825 201.264 240.385 197.074C250.565 193.384 259.695 187.604 267.295 180.264C267.295 180.264 271.395 176.664 274.015 179.944C274.015 179.944 263.295 161.964 258.885 154.694C256.215 150.264 255.675 163.374 249.635 175.924" fill="#414042"/>
</g>
</g>
<g style="mix-blend-mode:multiply" opacity="0.1">
<mask id="mask1_1_101" style="mask-type:luminance" maskUnits="userSpaceOnUse" x="293" y="89" width="45" height="53">
<path d="M337.555 89.8645H293.765V141.574H337.555V89.8645Z" fill="white"/>
</mask>
<g mask="url(#mask1_1_101)">
<path d="M312.035 93.9645C307.635 85.6045 286.705 91.5345 296.205 98.4445C321.105 116.494 296.645 117.324 313.245 141.584C310.315 135.614 311.595 126.624 318.995 114.044C324.315 104.974 330.245 102.954 337.515 102.924H337.545C337.545 102.924 316.425 102.314 312.025 93.9745" fill="#414042"/>
</g>
</g>
</g>
<defs>
<filter id="filter0_d_1_101" x="0" y="0" width="410.902" height="259.366" filterUnits="userSpaceOnUse" color-interpolation-filters="sRGB">
<feFlood flood-opacity="0" result="BackgroundImageFix"/>
<feColorMatrix in="SourceAlpha" type="matrix" values="0 0 0 0 0 0 0 0 0 0 0 0 0 0 0 0 0 0 127 0" result="hardAlpha"/>
<feOffset dy="4"/>
<feGaussianBlur stdDeviation="2"/>
<feComposite in2="hardAlpha" operator="out"/>
<feColorMatrix type="matrix" values="0 0 0 0 0 0 0 0 0 0 0 0 0 0 0 0 0 0 0.25 0"/>
<feBlend mode="normal" in2="BackgroundImageFix" result="effect1_dropShadow_1_101"/>
<feBlend mode="normal" in="SourceGraphic" in2="effect1_dropShadow_1_101" result="shape"/>
</filter>
</defs>
</svg>
